<?xml version="1.0" standalone="no"?>
<!DOCTYPE svg PUBLIC "-//W3C//DTD SVG 20010904//EN"
 "http://www.w3.org/TR/2001/REC-SVG-20010904/DTD/svg10.dtd">
<svg version="1.0" xmlns="http://www.w3.org/2000/svg"
 width="700.000000pt" height="195.000000pt" viewBox="0 0 700.000000 195.000000"
 preserveAspectRatio="xMidYMid meet">

<g transform="translate(0.000000,195.000000) scale(0.100000,-0.100000)"
fill="#000000" stroke="none">
<path d="M1397 1943 c-6 -9 -373 -822 -393 -870 l-14 -33 138 0 138 0 17 35
17 35 238 0 238 0 17 -35 17 -35 139 0 140 0 -19 43 c-10 23 -102 227 -204
452 l-185 410 -140 3 c-77 1 -142 -1 -144 -5z m200 -431 c29 -64 55 -125 59
-134 6 -17 -4 -18 -115 -18 -67 0 -121 3 -121 8 0 13 113 262 119 262 3 0 30
-53 58 -118z"/>
<path d="M2140 1496 l0 -456 130 0 130 0 0 75 0 75 149 0 150 0 43 -72 44 -73
147 -3 c81 -1 147 -1 147 2 0 2 -29 54 -65 115 -36 60 -65 114 -65 118 0 5 16
24 35 43 19 18 47 58 62 89 25 50 28 67 28 161 0 96 -2 110 -29 164 -39 79
-102 140 -184 179 l-67 32 -327 3 -328 3 0 -455z m627 179 c72 -43 81 -135 18
-192 l-35 -33 -175 0 -175 0 0 118 c0 65 3 122 7 126 5 4 80 6 168 4 137 -3
165 -6 192 -23z"/>
<path d="M3495 1936 c-148 -36 -270 -144 -323 -288 -90 -243 42 -512 289 -589
51 -16 93 -19 270 -19 l209 0 0 125 0 125 -193 0 c-184 0 -196 1 -238 23 -56
30 -100 91 -106 150 -9 77 4 115 56 167 63 63 106 72 320 68 l161 -3 0 128 0
127 -197 -1 c-119 0 -218 -6 -248 -13z"/>
<path d="M4020 1823 l0 -128 132 0 133 0 3 -327 2 -328 125 0 125 0 2 328 3
327 135 2 135 1 3 126 3 126 -401 0 -400 0 0 -127z"/>
<path d="M4890 1495 l0 -455 130 0 130 0 0 455 0 455 -130 0 -130 0 0 -455z"/>
<path d="M5565 1936 c-127 -31 -251 -131 -305 -248 -117 -249 7 -540 268 -627
54 -19 85 -21 272 -21 l210 0 0 125 0 125 -188 0 c-181 0 -190 1 -239 25 -151
75 -150 277 1 358 38 20 54 22 233 22 l193 0 0 128 0 127 -197 -1 c-119 0
-218 -6 -248 -13z"/>
<path d="M1630 940 c-118 -25 -254 -128 -312 -236 -139 -258 -17 -575 261
-677 79 -28 233 -28 312 0 207 76 332 269 316 488 -3 39 -15 96 -27 128 -47
124 -173 246 -293 282 -64 20 -196 27 -257 15z m167 -255 c93 -28 155 -112
155 -210 0 -123 -93 -216 -217 -216 -99 0 -183 62 -211 157 -34 117 31 232
150 270 54 17 63 17 123 -1z"/>
<path d="M0 475 l0 -455 128 0 127 0 -2 270 c-2 148 1 270 5 270 4 0 79 -72
167 -160 88 -88 164 -160 170 -160 6 0 82 72 170 160 88 88 164 160 168 160 5
0 7 -120 5 -267 l-3 -268 128 -3 127 -3 0 456 0 455 -127 0 -128 0 -167 -167
-168 -168 -168 168 -167 167 -133 0 -132 0 0 -455z"/>
<path d="M2280 475 l0 -455 125 0 125 0 0 277 0 278 278 -278 277 -277 133 0
132 0 0 455 0 455 -130 0 -130 0 0 -270 c0 -148 -3 -270 -8 -270 -4 0 -129
122 -277 270 l-270 270 -127 0 -128 0 0 -455z"/>
<path d="M3430 475 l0 -455 125 0 125 0 0 109 c0 102 2 112 24 138 l25 28 138
-138 139 -137 177 2 177 3 -222 223 -222 223 230 229 230 230 -181 0 -180 0
-160 -160 c-88 -88 -163 -160 -167 -160 -5 0 -8 72 -8 160 l0 160 -125 0 -125
0 0 -455z"/>
<path d="M4450 475 l0 -455 375 0 375 0 0 125 0 125 -247 2 -248 3 -3 42 -3
43 250 0 251 0 0 115 0 115 -247 2 -248 3 -3 43 -3 42 250 0 251 0 0 125 0
125 -375 0 -375 0 0 -455z"/>
<path d="M5278 898 c11 -18 90 -150 176 -293 l156 -260 0 -162 0 -163 125 0
125 0 0 161 0 161 172 286 c94 158 173 290 175 295 2 4 -63 7 -145 7 l-148 0
-83 -140 c-46 -77 -87 -143 -92 -145 -4 -3 -47 60 -95 140 l-87 145 -149 0
-150 0 20 -32z"/>
<path d="M6334 906 c-68 -32 -115 -75 -144 -133 -29 -57 -38 -154 -20 -217 17
-63 76 -134 140 -170 55 -31 56 -31 234 -36 156 -4 180 -7 190 -22 8 -13 8
-23 0 -35 -10 -16 -36 -18 -278 -21 l-266 -2 0 -125 0 -125 283 0 c325 0 346
4 426 76 70 63 95 120 96 214 0 87 -23 144 -81 204 -70 72 -97 80 -302 86
-187 5 -201 8 -202 47 0 28 44 33 294 33 l256 0 0 125 0 125 -287 0 c-281 0
-289 -1 -339 -24z"/>
</g>
</svg>
