<?xml version="1.0" encoding="utf-8"?>
<!-- Generator: Adobe Illustrator 24.3.0, SVG Export Plug-In . SVG Version: 6.00 Build 0)  -->
<svg version="1.1" id="Layer_1" xmlns="http://www.w3.org/2000/svg" xmlns:xlink="http://www.w3.org/1999/xlink" x="0px" y="0px"
	 viewBox="0 0 512 512" style="enable-background:new 0 0 512 512;" xml:space="preserve">
<g id="XMLID_1_">
	<path id="XMLID_3_" d="M295.14,190.77c0,0-17.53-15.71-27.49,0c-9.96,15.71-9.96,46.01,9.26,37.73c0,0,11.36-3.23,18.24-10.38
		v42.78c0,0-31.56,16.97-57.37-7.86c0,0-24.97-28.2-2.1-69.44c0,0,19.92-36.47,63.12-30.86L295.14,190.77z"/>
	<path id="XMLID_4_" d="M304.82,152.34l-3.23,31.98h15.71c0,0-6.03,65.65-7.86,73.78v2.81l32.12-3.93c0,0,4.63-72.38,6.45-76.73
		l15.99-0.7v-35.63C364.01,144.06,310.85,151.78,304.82,152.34L304.82,152.34z"/>
	<path id="XMLID_5_" d="M371.16,144.06c0,0-3.93,58.92-5.75,62.84c-1.82,3.93-5.05,46.43-3.23,48.53l27.49-5.33
		c0,0,11.36-107.17,12.48-108.99L371.16,144.06L371.16,144.06z"/>
	<path id="XMLID_6_" d="M481.28,182.36c0,0-15.99-20.34-32.4-3.79c-16.27,16.55,2.1,33.39,9.68,33.39c7.43,0,17.96-1.54,22.72-6.17
		v36.19c0,0-32.68,18.24-57.51-2.38c0,0-36.05-24.41-13.61-72.8c0,0,19.22-44.47,72.52-25.81L481.28,182.36L481.28,182.36z"/>
	<path id="XMLID_7_" d="M0,375.23h25.95l8.28-31.56c0,0,7.72,28.05,8.84,28.9c0,0,18.52-23.57,23-28.9l-3.23,30.16l24.83,1.4
		c0,0-1.12-80.8,0-82.06H70.56c0,0-17.53,28.9-17.25,30.72c0.14,1.82-6.45-21.88-7.01-27.07l-19.5-0.56
		C26.79,296.26,2.38,370.6,0,375.23L0,375.23z"/>
	<path id="XMLID_8_" d="M178.15,285.32c0,0-3.79,43.91-6.73,48.82c-2.95,4.91-3.93,38.15-4.07,39.42c-0.14,1.4,27.07-1.4,27.07-1.4
		s2.1-39.28,4.07-42.64c0,0,16.27,42.08,20.62,42.08s25.11-1.26,25.11-1.26s2.1-44.61,7.15-59.06c5.05-14.45,5.33-38.29,5.33-38.29
		h-26.51c0,0,2.67,12.62-1.12,25.11c-3.79,12.62-7.15,24.13-7.15,24.13l-14.73-44.47C207.32,277.88,184.6,285.32,178.15,285.32
		L178.15,285.32z"/>
	<path id="XMLID_9_" d="M262.31,272.97c0,0-3.65,36.89-8,48.96c-4.35,12.06-4.49,48.11-4.49,48.11l28.05-2.1l1.82-31.28l12.91,31.56
		l31.28-1.4l-22.44-50.08c0,0,25.11-33.53,31.14-50.22l-29.46,2.52c0,0-15.01,29.46-17.39,31.84c0,0,3.79-20.9,2.95-30.02
		L262.31,272.97z"/>
	<path id="XMLID_10_" d="M338.06,264.98c-1.12,0.14-5.05,44.47-7.72,56.95c-2.67,12.62-2.67,40.4-1.82,44.47h52.18l4.49-31.28
		h-28.62l1.26-8.84l17.96-0.84l0.84-27.07l-16.83,0.56v-8.84l23.85-2.38l-1.68-29.46C381.97,258.24,363.17,261.61,338.06,264.98z"/>
	<path id="XMLID_11_" d="M386.6,258.24c0,0,15.01,54.71,18.8,60.18l-3.09,47.97h28.2l3.23-46.57c0,0,26.79-57.23,26.79-61.58h-29.46
		l-9.68,25.11l-6.17-25.11H386.6L386.6,258.24z"/>
	<path id="XMLID_12_" d="M470.06,261.05c0,0-16.97,9.26-17.39,30.86c-0.28,15.01,7.72,27.35,21.32,33.53
		c6.73,2.95,8.56,4.49,8.56,8.14c0,6.03-16.55,4.91-24.13-7.72l-10.1,29.46c0,0,14.17,18.24,36.61,10.94
		c22.44-7.15,27.07-27.49,27.07-35.91c0-8.28-3.79-27.07-21.46-33.95c-6.45-2.52-9.82-4.77-8-9.12c3.79-8.84,15.01-0.56,21.18,7.01
		l8.28-24.41C512,270.03,495.73,248,470.06,261.05L470.06,261.05z"/>
	<path id="XMLID_15_" d="M165.8,310.43c0,0-8-22.58-31-22.58c0,0-16.27,2.52-28.05,13.89c0,0-26.51,25.39-11.5,56.67
		c0,0,19.22,32.12,50.78,8.56C146.03,366.96,174.08,351.67,165.8,310.43L165.8,310.43z M135.64,342.27
		c-3.51,3.79-12.91,8.28-17.96-1.82c-5.05-10.1,5.89-21.18,5.89-21.18s9.4-10.38,16.27,0C146.87,329.78,139.15,338.62,135.64,342.27
		L135.64,342.27z"/>
	<path id="XMLID_19_" d="M209.85,230.75c18.94-22.16,18.94-44.19,11.36-54.15c-7.43-9.96-20.34-8.14-33.1-2.81
		c-12.91,5.33-30.3,6.45-30.02,9.96c0.42,3.51-11.36,91.6-11.36,91.6v-2.81c0,0-4.35-39.28-7.43-47.13
		c-3.23-7.86-5.75-36.05-7.43-34.65c-1.82,1.4-32.12,6.73-32.82,7.86s-2.1,18.52-18.24,40.96C64.81,262.03,53.3,287.7,53.3,287.7
		l34.65-2.1c-0.42-7.43,4.35-15.01,4.35-15.01l21.74-0.7l1.12,13.89c22.44,5.05,64.25-6.73,64.25-6.73l1.82-32.82
		c5.75,6.45,11.08,30.3,13.89,28.48c2.81-1.82,37.03-7.15,37.03-7.15L209.85,230.75L209.85,230.75z M113.62,245.76l-10.66,1.4
		l10.66-23.15V245.76L113.62,245.76z M196.66,207.89c-2.52,7.43-13.61,9.68-13.61,9.68l2.52-19.36
		C194.98,194.56,199.19,200.45,196.66,207.89L196.66,207.89z"/>
</g>
</svg>
