<?xml version="1.0" encoding="utf-8"?>
<!-- Generator: Adobe Illustrator 27.8.1, SVG Export Plug-In . SVG Version: 6.00 Build 0)  -->
<svg version="1.1" id="Capa_1" xmlns="http://www.w3.org/2000/svg" xmlns:xlink="http://www.w3.org/1999/xlink" x="0px" y="0px"
	 viewBox="0 0 246.94 246.94" style="enable-background:new 0 0 246.94 246.94;" xml:space="preserve">
<style type="text/css">
	.st0{stroke:#000000;stroke-miterlimit:10;}
	.st1{fill:#FFFFFF;stroke:#000000;stroke-miterlimit:10;}
</style>
<g>
	
		<ellipse transform="matrix(0.7071 -0.7071 0.7071 0.7071 -51.8511 123.059)" class="st0" cx="122.62" cy="124.12" rx="103.08" ry="103.08"/>
	<path class="st1" d="M133.94,94.93c0,0-5.63-5.06-8.85,0c-3.22,5.06-3.22,14.81,2.99,12.17c0,0,3.68-1.03,5.86-3.32v13.79
		c0,0-10.15,5.46-18.5-2.53c0,0-8.04-9.09-0.69-22.36c0,0,6.44-11.77,20.34-9.93L133.94,94.93z"/>
	<path class="st1" d="M137.04,82.56l-1.03,10.31h5.06c0,0-1.95,21.14-2.53,23.79v0.92l10.34-1.26c0,0,1.49-23.33,2.07-24.71
		l5.17-0.23V79.88C156.12,79.88,138.99,82.36,137.04,82.56z"/>
	<path class="st1" d="M158.42,79.88c0,0-1.26,18.96-1.84,20.23c-0.58,1.26-1.61,14.94-1.03,15.63l8.85-1.72
		c0,0,3.65-34.52,4.04-35.12L158.42,79.88z"/>
	<path class="st1" d="M193.89,92.2c0,0-5.17-6.55-10.43-1.21c-5.26,5.34,0.69,10.77,3.1,10.77c2.41,0,5.77-0.52,7.33-1.98v11.64
		c0,0-10.51,5.86-18.53-0.78c0,0-11.63-7.84-4.4-23.44c0,0,6.21-14.31,23.36-8.32L193.89,92.2z"/>
	<path class="st1" d="M38.85,154.34h8.36l2.67-10.17c0,0,2.5,9.05,2.84,9.31c0,0,5.95-7.59,7.41-9.31l-1.03,9.74l8.01,0.43
		c0,0-0.34-26.03,0-26.46H61.6c0,0-5.63,9.31-5.57,9.91c0.06,0.6-2.1-7.07-2.27-8.7l-6.29-0.17
		C47.47,128.92,39.62,152.88,38.85,154.34z"/>
	<path class="st1" d="M96.25,125.38c0,0-1.21,14.13-2.16,15.73c-0.95,1.59-1.25,12.28-1.32,12.71c-0.06,0.43,8.73-0.43,8.73-0.43
		s0.69-12.63,1.29-13.73c0,0,5.26,13.56,6.64,13.56c1.38,0,8.1-0.43,8.1-0.43s0.69-14.39,2.33-19.05
		c1.64-4.65,1.72-12.33,1.72-12.33h-8.53c0,0,0.86,4.05-0.34,8.1c-1.21,4.05-2.33,7.76-2.33,7.76l-4.74-14.31
		C105.64,122.97,98.32,125.38,96.25,125.38z"/>
	<path class="st1" d="M123.37,121.42c0,0-1.18,11.89-2.56,15.77c-1.38,3.88-1.46,15.51-1.46,15.51l9.05-0.69l0.6-10.08l4.14,10.17
		l10.08-0.43l-7.21-16.12c0,0,8.07-10.78,10.05-16.16l-9.48,0.82c0,0-4.83,9.48-5.6,10.26c0,0,1.21-6.72,0.95-9.65L123.37,121.42z"
		/>
	<path class="st1" d="M147.79,118.83c-0.34,0.05-1.64,14.31-2.5,18.36c-0.86,4.05-0.86,13.01-0.6,14.31h16.81l1.47-10.08h-9.21
		l0.42-2.84l5.77-0.26l0.26-8.71l-5.43,0.17v-2.84l7.67-0.75l-0.54-9.51C161.9,116.68,155.86,117.73,147.79,118.83z"/>
	<path class="st1" d="M163.38,116.68c0,0,4.83,17.62,6.03,19.37l-0.99,15.45h9.09l1.03-15c0,0,8.62-18.44,8.62-19.82h-9.48l-3.1,8.1
		l-1.98-8.1H163.38z"/>
	<path class="st1" d="M190.27,117.57c0,0-6.72,3.68-5.43,12.38c1.29,8.71,5.69,7.67,6.72,8.36c1.03,0.69,3.62,1.12,2.76,2.84
		c-0.86,1.72-5.34,1.38-7.76-2.67l-3.28,9.48c0,0,4.57,5.86,11.81,3.53c7.24-2.33,8.71-8.88,8.71-11.55c0-2.67-0.43-7.93-6.9-10.95
		c0,0-3.79-0.09-2.58-2.93c1.21-2.84,4.83-0.17,6.81,2.24l2.67-7.84C203.81,120.47,198.55,113.37,190.27,117.57z"/>
	<path class="st1" d="M106.47,107.8c6.09-7.12,6.09-14.25,3.68-17.47c-2.41-3.22-6.55-2.64-10.69-0.92
		c-4.14,1.72-9.77,2.07-9.65,3.22c0.12,1.15-3.68,29.53-3.68,29.53v-0.92c0,0-1.38-12.64-2.41-15.17
		c-1.03-2.53-1.84-11.61-2.41-11.15c-0.57,0.46-10.34,2.18-10.57,2.53c-0.23,0.34-0.69,5.98-5.86,13.21
		c-5.17,7.24-8.85,15.51-8.85,15.51l11.15-0.69c-0.12-2.41,1.38-4.83,1.38-4.83l7.01-0.23l0.34,4.48
		c7.24,1.61,20.68-2.18,20.68-2.18l0.57-10.57c1.84,2.07,3.56,9.77,4.48,9.19c0.92-0.57,11.95-2.3,11.95-2.3L106.47,107.8z
		 M75.45,112.63L72,113.09l3.45-7.47V112.63z M102.22,100.43c-0.8,2.4-4.37,3.12-4.37,3.12l0.8-6.24
		C101.65,96.12,103.03,98.03,102.22,100.43z"/>
	<path class="st1" d="M92.28,133.48c0,0-2.59-7.27-10-7.3c0,0-5.26,0.83-9.05,4.45c0,0-8.53,8.19-3.71,18.27
		c0,0,6.21,10.34,16.38,2.76C85.9,151.67,94.95,146.76,92.28,133.48z M82.54,143.74c-1.12,1.21-4.14,2.67-5.77-0.6
		c-1.64-3.27,1.9-6.81,1.9-6.81s3.02-3.36,5.26,0C86.16,139.69,83.66,142.53,82.54,143.74z"/>
</g>
</svg>
