<?xml version="1.0" encoding="utf-8"?>
<!-- Generator: Adobe Illustrator 27.8.1, SVG Export Plug-In . SVG Version: 6.00 Build 0)  -->
<svg version="1.1" id="Layer_1" xmlns="http://www.w3.org/2000/svg" xmlns:xlink="http://www.w3.org/1999/xlink" x="0px" y="0px"
	 viewBox="0 0 500 500" style="enable-background:new 0 0 500 500;" xml:space="preserve">
<g id="XMLID_1_">
	<path id="XMLID_3_" d="M277.91,203.53c0,0-12.46-11.19-19.58,0c-7.12,11.19-7.12,32.76,6.61,26.93c0,0,8.13-2.27,12.97-7.36v30.51
		c0,0-22.47,12.08-40.94-5.59c0,0-17.8-20.11-1.53-49.47c0,0,14.24-26.05,45.01-21.98L277.91,203.53z"/>
	<path id="XMLID_4_" d="M284.77,176.14l-2.29,22.81h11.19c0,0-4.32,46.78-5.59,52.63v2.03l22.88-2.8c0,0,3.31-51.61,4.58-54.66
		l11.44-0.51v-25.43C326.98,170.22,289.09,175.72,284.77,176.14L284.77,176.14z"/>
	<path id="XMLID_5_" d="M332.07,170.22c0,0-2.8,41.95-4.07,44.75c-1.27,2.8-3.56,33.05-2.29,34.58l19.58-3.81
		c0,0,8.08-76.38,8.93-77.71L332.07,170.22L332.07,170.22z"/>
	<path id="XMLID_6_" d="M410.57,197.49c0,0-11.44-14.49-23.08-2.67c-11.63,11.83,1.53,23.84,6.87,23.84
		c5.34,0,12.78-1.14,16.21-4.39v25.75c0,0-23.27,12.97-41-1.72c0,0-25.74-17.35-9.73-51.87c0,0,13.73-31.66,51.68-18.4
		L410.57,197.49L410.57,197.49z"/>
	<path id="XMLID_7_" d="M67.5,334.98H86l5.91-22.51c0,0,5.53,20.02,6.29,20.6c0,0,13.16-16.78,16.4-20.59l-2.29,21.55l17.73,0.96
		c0,0-0.76-57.59,0-58.55h-12.21c0,0-12.46,20.6-12.33,21.93c0.13,1.34-4.64-15.64-5.02-19.26l-13.92-0.38
		C86.57,278.73,69.22,331.74,67.5,334.98L67.5,334.98z"/>
	<path id="XMLID_8_" d="M194.51,270.91c0,0-2.67,31.27-4.77,34.8c-2.1,3.53-2.77,27.18-2.91,28.13c-0.14,0.96,19.31-0.95,19.31-0.95
		s1.53-27.96,2.86-30.38c0,0,11.63,29.99,14.68,29.99s17.93-0.95,17.93-0.95s1.52-31.85,5.15-42.14c3.62-10.3,3.81-27.27,3.81-27.27
		h-18.88c0,0,1.91,8.96-0.76,17.93c-2.67,8.96-5.15,17.16-5.15,17.16l-10.49-31.65C215.29,265.57,199.08,270.91,194.51,270.91
		L194.51,270.91z"/>
	<path id="XMLID_9_" d="M254.52,262.13c0,0-2.61,26.32-5.66,34.9c-3.05,8.58-3.24,34.32-3.24,34.32l20.02-1.53l1.34-22.31
		l9.15,22.51l22.31-0.96l-15.96-35.66c0,0,17.86-23.85,22.25-35.76l-20.98,1.82c0,0-10.68,20.98-12.39,22.69
		c0,0,2.67-14.87,2.1-21.36L254.52,262.13z"/>
	<path id="XMLID_10_" d="M308.54,256.41c-0.76,0.11-3.62,31.66-5.53,40.62c-1.91,8.96-1.91,28.8-1.34,31.66h37.19l3.24-22.32h-20.38
		l0.93-6.29l12.78-0.57l0.57-19.26l-12.01,0.38v-6.3l16.97-1.65l-1.19-21.04C339.77,251.65,326.4,253.96,308.54,256.41z"/>
	<path id="XMLID_11_" d="M343.06,251.65c0,0,10.68,38.99,13.35,42.85l-2.19,34.19h20.11l2.29-33.18c0,0,19.07-40.81,19.07-43.86
		h-20.98l-6.87,17.93l-4.39-17.93L343.06,251.65L343.06,251.65z"/>
	<path id="XMLID_12_" d="M402.56,253.62c0,0-12.1,6.62-12.37,22.04c-0.19,10.67,5.51,19.55,15.24,23.86c4.81,2.13,6.1,3.16,6.1,5.84
		c0,4.26-11.82,3.51-17.16-5.46l-7.25,20.97c0,0,10.11,12.97,26.13,7.82c16.02-5.15,19.26-19.64,19.26-25.55
		c0-5.91-2.7-19.26-15.26-24.22c-4.6-1.82-7.03-3.4-5.72-6.49c2.67-6.29,10.68-0.38,15.07,4.96l5.91-17.36
		C432.5,260.04,420.87,244.34,402.56,253.62L402.56,253.62z"/>
	<path id="XMLID_15_" d="M185.73,288.83c0,0-5.72-16.08-22.12-16.14c0,0-11.63,1.84-20.02,9.85c0,0-18.88,18.11-8.2,40.43
		c0,0,13.73,22.88,36.24,6.1C171.62,329.07,191.65,318.2,185.73,288.83L185.73,288.83z M164.18,311.52
		c-2.48,2.67-9.15,5.91-12.78-1.33c-3.62-7.24,4.2-15.07,4.2-15.07s6.67-7.44,11.63,0C172.19,302.57,166.66,308.86,164.18,311.52
		L164.18,311.52z"/>
	<path id="XMLID_19_" d="M217.14,232c13.47-15.76,13.47-31.53,8.14-38.65c-5.34-7.12-14.49-5.85-23.65-2.04
		c-9.15,3.81-21.61,4.58-21.36,7.12c0.26,2.54-8.14,65.35-8.14,65.35v-2.03c0,0-3.05-27.97-5.34-33.56
		c-2.29-5.59-4.07-25.68-5.34-24.66c-1.27,1.02-22.88,4.83-23.39,5.59c-0.51,0.76-1.53,13.22-12.97,29.24
		c-11.44,16.03-19.58,34.33-19.58,34.33l24.66-1.53c-0.25-5.34,3.05-10.68,3.05-10.68l15.51-0.51l0.76,9.92
		c16.02,3.56,45.77-4.83,45.77-4.83l1.27-23.39c4.07,4.58,7.89,21.61,9.92,20.34c2.03-1.27,26.44-5.09,26.44-5.09L217.14,232
		L217.14,232z M148.48,242.68l-7.63,1.02l7.63-16.53L148.48,242.68L148.48,242.68z M207.73,215.69c-1.78,5.3-9.66,6.9-9.66,6.9
		l1.78-13.81C206.46,206.17,209.51,210.39,207.73,215.69L207.73,215.69z"/>
</g>
</svg>
