<?xml version="1.0" encoding="iso-8859-1"?>
<!-- Generator: Adobe Illustrator 27.3.1, SVG Export Plug-In . SVG Version: 6.00 Build 0)  -->
<svg version="1.1" id="Layer_1" xmlns="http://www.w3.org/2000/svg" xmlns:xlink="http://www.w3.org/1999/xlink" x="0px" y="0px"
	 viewBox="0 0 600 600" style="enable-background:new 0 0 600 600;" xml:space="preserve">
<g id="XMLID_1_">
	<path id="XMLID_3_" d="M343.578,227.426c0,0-19.454-17.472-30.573,0c-11.119,17.472-11.119,51.167,10.322,42.062
		c0,0,12.699-3.544,20.248-11.489v47.652c0,0-35.086,18.86-63.928-8.736c0,0-27.791-31.412-2.383-77.251
		c0,0,22.239-40.676,70.284-34.324L343.578,227.426z"/>
	<path id="XMLID_4_" d="M354.299,184.664l-3.574,35.618h17.472c0,0-6.751,73.057-8.736,82.192v3.178l35.736-4.371
		c0,0,5.162-80.603,7.147-85.367l17.868-0.797v-39.705c0,0-59.165,8.582-65.913,9.256L354.299,184.664z"/>
	<path id="XMLID_5_" d="M428.156,175.408c0,0-4.371,65.517-6.356,69.885c-1.988,4.365-5.561,51.619-3.574,54.002l30.573-5.954
		c0,0,12.611-119.271,13.946-121.353l-34.59,3.426V175.408z"/>
	<path id="XMLID_6_" d="M550.75,217.996c0,0-17.868-22.635-36.037-4.17c-18.169,18.467,2.383,37.227,10.721,37.227
		c8.337,0,19.953-1.787,25.316-6.852v40.207c0,0-36.332,20.248-64.029-2.688c0,0-40.204-27.097-15.189-80.999
		c0,0,21.441-49.439,80.709-28.736l-1.489,46.013L550.75,217.996z"/>
	<path id="XMLID_7_" d="M15,432.713h28.89l9.229-35.145c0,0,8.639,31.27,9.829,32.168c0,0,20.547-26.208,25.612-32.162
		l-3.574,33.647l27.694,1.494c0,0-1.19-89.935,0-91.427H93.618c0,0-19.454,32.162-19.256,34.244
		c0.198,2.085-7.248-24.424-7.841-30.077l-21.743-0.591c0,0-27.1,82.78-29.779,87.845V432.713z"/>
	<path id="XMLID_8_" d="M213.338,332.651c0,0-4.17,48.837-7.448,54.348c-3.272,5.511-4.33,42.44-4.548,43.925
		c-0.215,1.491,30.16-1.489,30.16-1.489s2.383-43.659,4.468-47.44c0,0,18.163,46.84,22.93,46.84s27.998-1.482,27.998-1.482
		s2.38-49.734,8.039-65.813c5.659-16.084,5.957-42.587,5.957-42.587H271.41c0,0,2.983,13.999-1.19,27.998
		c-4.164,13.993-8.042,26.802-8.042,26.802l-16.379-49.433c0,0-25.31,8.337-32.457,8.337L213.338,332.651z"/>
	<path id="XMLID_9_" d="M307.057,318.95c0,0-4.076,41.096-8.845,54.501c-4.764,13.399-5.062,53.603-5.062,53.603l31.27-2.383
		l2.085-34.841l14.294,35.145l34.844-1.494l-24.917-55.691c0,0,27.894-37.248,34.743-55.848l-32.762,2.835
		c0,0-16.678,32.765-19.356,35.44c0,0,4.164-23.228,3.278-33.352L307.057,318.95z"/>
	<path id="XMLID_10_" d="M391.423,310.013c-1.181,0.165-5.659,49.439-8.636,63.438c-2.983,13.999-2.983,44.968-2.085,49.439h58.072
		l5.062-34.849h-31.828l1.447-9.823l19.956-0.895l0.895-30.077l-18.763,0.597v-9.832l26.503-2.581l-1.852-32.859
		C440.194,302.571,419.314,306.192,391.423,310.013z"/>
	<path id="XMLID_11_" d="M445.327,302.571c0,0,16.675,60.892,20.851,66.923l-3.426,53.397h31.412l3.574-51.82
		c0,0,29.782-63.733,29.782-68.497H494.76l-10.721,27.998l-6.852-27.998h-31.861V302.571z"/>
	<path id="XMLID_12_" d="M538.24,305.651c0,0-18.89,10.331-19.324,34.415c-0.301,16.657,8.603,30.526,23.792,37.257
		c7.513,3.331,9.521,4.932,9.521,9.117c0,6.66-18.458,5.475-26.793-8.52l-11.317,32.753c0,0,15.786,20.254,40.801,12.215
		c25.015-8.042,30.08-30.673,30.08-39.906c0-9.232-4.223-30.077-23.828-37.821c-7.188-2.841-10.972-5.316-8.931-10.13
		c4.164-9.826,16.678-0.591,23.526,7.747L585,315.675c0,0-18.169-24.513-46.757-10.021L538.24,305.651z"/>
	<path id="XMLID_15_" d="M199.638,360.64c0,0-8.934-25.112-34.545-25.21c0,0-18.163,2.88-31.267,15.387
		c0,0-29.483,28.287-12.806,63.131c0,0,21.441,35.736,56.586,9.53c0,0,31.267-16.976,22.032-62.841V360.64z M165.984,396.08
		c-3.869,4.17-14.294,9.232-19.953-2.082c-5.656-11.311,6.556-23.526,6.556-23.526s10.419-11.613,18.163,0
		c7.744,11.618-0.892,21.441-4.767,25.614V396.08z"/>
	<path id="XMLID_19_" d="M248.678,271.897c21.043-24.619,21.043-49.232,12.705-60.352c-8.337-11.119-22.632-9.135-36.926-3.181
		c-14.294,5.957-33.751,7.147-33.355,11.116c0.399,3.969-12.705,102.047-12.705,102.047v-3.178c0,0-4.764-43.68-8.337-52.413
		c-3.574-8.736-6.35-40.106-8.337-38.512c-1.985,1.586-35.735,7.543-36.533,8.733c-0.797,1.19-2.383,20.644-20.251,45.659
		c-17.868,25.027-30.576,53.615-30.576,53.615l38.512-2.383c-0.396-8.343,4.767-16.681,4.767-16.681l24.226-0.797l1.19,15.487
		c25.015,5.561,71.471-7.543,71.471-7.543l1.985-36.533c6.35,7.147,12.315,33.751,15.487,31.769
		c3.175-1.987,41.294-7.944,41.294-7.944l-24.616-38.913V271.897z M141.463,288.572l-11.908,1.589l11.911-25.812v24.226
		L141.463,288.572z M233.991,246.428c-2.776,8.275-15.092,10.78-15.092,10.78l2.782-21.565c10.322-4.096,15.092,2.504,12.31,10.78
		V246.428z"/>
</g>
</svg>
